<svg width="302" height="72" viewBox="0 0 302 72" fill="none" xmlns="http://www.w3.org/2000/svg">
<path d="M46.2 27.304C46.2 32.056 44.352 35.686 40.656 38.194C36.96 40.658 31.592 41.89 24.552 41.89H18.942V53.506C18.942 55.178 19.052 56.542 19.272 57.598C19.492 58.61 19.954 59.402 20.658 59.974C21.362 60.546 22.33 60.92 23.562 61.096C24.794 61.272 26.444 61.36 28.512 61.36V64H2.31V61.36C3.762 61.316 4.95 61.184 5.874 60.964C6.798 60.744 7.502 60.37 7.986 59.842C8.47 59.314 8.8 58.566 8.976 57.598C9.152 56.63 9.24 55.376 9.24 53.836V23.344C9.24 21.804 9.152 20.572 8.976 19.648C8.844 18.68 8.558 17.932 8.118 17.404C7.678 16.832 7.04 16.458 6.204 16.282C5.412 16.062 4.356 15.908 3.036 15.82V13.18H25.872C32.56 13.18 37.62 14.368 41.052 16.744C44.484 19.12 46.2 22.64 46.2 27.304ZM18.942 37.93H23.232C27.5 37.93 30.624 37.072 32.604 35.356C34.584 33.64 35.574 30.934 35.574 27.238C35.574 23.938 34.738 21.386 33.066 19.582C31.394 17.778 28.776 16.876 25.212 16.876H20.13C19.338 16.876 18.942 17.25 18.942 17.998V37.93ZM76.0562 48.622H57.3782C55.3102 53.286 54.2762 56.52 54.2762 58.324C54.2762 59.644 54.7602 60.48 55.7282 60.832C56.7402 61.184 58.2362 61.36 60.2162 61.36V64H42.1322V61.36C43.1882 61.228 44.0902 61.052 44.8382 60.832C45.6302 60.612 46.3122 60.304 46.8842 59.908C47.5002 59.512 48.0282 59.006 48.4682 58.39C48.9082 57.73 49.3262 56.938 49.7222 56.014L67.0802 12.52H71.9642L87.7382 51.064C88.6622 53.308 89.4322 55.068 90.0482 56.344C90.7082 57.62 91.3902 58.61 92.0942 59.314C92.8422 59.974 93.6782 60.436 94.6022 60.7C95.5702 60.964 96.8022 61.162 98.2982 61.294V64H73.3502V61.294C75.4622 61.206 76.9802 60.986 77.9042 60.634C78.8282 60.282 79.2902 59.578 79.2902 58.522C79.2902 57.906 79.1362 57.114 78.8282 56.146C78.5202 55.178 78.1022 53.99 77.5742 52.582L76.0562 48.622ZM58.8962 44.662H74.6042L67.0142 24.664H66.7502L58.8962 44.662ZM145.185 27.7H142.347C142.215 25.544 141.885 23.762 141.357 22.354C140.873 20.902 140.169 19.758 139.245 18.922C138.321 18.042 137.199 17.448 135.879 17.14C134.559 16.788 133.019 16.612 131.259 16.612C129.543 16.612 128.157 16.656 127.101 16.744C126.089 16.788 125.297 16.898 124.725 17.074C124.197 17.206 123.845 17.404 123.669 17.668C123.493 17.932 123.405 18.262 123.405 18.658V53.242C123.405 54.65 123.493 55.86 123.669 56.872C123.889 57.884 124.307 58.72 124.923 59.38C125.539 59.996 126.441 60.48 127.629 60.832C128.817 61.14 130.379 61.316 132.315 61.36V64H104.661V61.36C106.641 61.316 108.225 61.14 109.413 60.832C110.601 60.48 111.503 59.996 112.119 59.38C112.779 58.72 113.197 57.884 113.373 56.872C113.593 55.86 113.703 54.65 113.703 53.242V18.658C113.703 18.262 113.615 17.932 113.439 17.668C113.307 17.404 112.999 17.206 112.515 17.074C112.031 16.898 111.327 16.788 110.403 16.744C109.523 16.656 108.357 16.612 106.905 16.612C105.321 16.612 103.803 16.7 102.351 16.876C100.899 17.008 99.6225 17.448 98.5225 18.196C97.4225 18.9 96.5205 20 95.8165 21.496C95.1565 22.948 94.8045 25.016 94.7605 27.7H92.1865L92.8465 13.18H144.525L145.185 27.7ZM199.116 53.374C199.116 55.046 199.182 56.41 199.314 57.466C199.49 58.478 199.82 59.27 200.304 59.842C200.832 60.37 201.536 60.744 202.416 60.964C203.34 61.184 204.55 61.316 206.046 61.36V64H181.824V61.36C183.452 61.316 184.75 61.184 185.718 60.964C186.73 60.744 187.5 60.37 188.028 59.842C188.6 59.314 188.974 58.566 189.15 57.598C189.326 56.63 189.414 55.376 189.414 53.836V40.042H164.928V53.374C164.928 55.046 165.016 56.41 165.192 57.466C165.368 58.478 165.72 59.27 166.248 59.842C166.776 60.37 167.524 60.744 168.492 60.964C169.504 61.184 170.824 61.316 172.452 61.36V64H148.296V61.36C149.792 61.316 150.98 61.184 151.86 60.964C152.784 60.744 153.488 60.37 153.972 59.842C154.456 59.314 154.786 58.566 154.962 57.598C155.138 56.63 155.226 55.376 155.226 53.836V23.344C155.226 21.804 155.138 20.572 154.962 19.648C154.83 18.68 154.544 17.932 154.104 17.404C153.664 16.832 153.026 16.458 152.19 16.282C151.398 16.062 150.342 15.908 149.022 15.82V13.18H171.792V15.82C170.296 15.864 169.086 15.996 168.162 16.216C167.282 16.436 166.6 16.832 166.116 17.404C165.632 17.976 165.302 18.768 165.126 19.78C164.994 20.792 164.928 22.134 164.928 23.806V35.95H189.414V23.344C189.414 21.804 189.326 20.572 189.15 19.648C188.974 18.68 188.644 17.932 188.16 17.404C187.676 16.832 186.972 16.458 186.048 16.282C185.168 16.062 183.98 15.908 182.484 15.82V13.18H205.32V15.82C204 15.864 202.922 15.996 202.086 16.216C201.294 16.436 200.678 16.832 200.238 17.404C199.798 17.976 199.49 18.768 199.314 19.78C199.182 20.792 199.116 22.134 199.116 23.806V53.374ZM211.941 47.17H214.515C215.131 51.35 216.803 54.65 219.531 57.07C222.259 59.446 225.625 60.634 229.629 60.634C231.257 60.634 232.753 60.436 234.117 60.04C235.481 59.644 236.647 59.094 237.615 58.39C238.583 57.642 239.331 56.784 239.859 55.816C240.387 54.804 240.651 53.682 240.651 52.45C240.651 51.394 240.475 50.492 240.123 49.744C239.815 48.952 239.199 48.204 238.275 47.5C237.351 46.752 236.075 46.004 234.447 45.256C232.863 44.508 230.795 43.65 228.243 42.682C223.095 40.702 219.289 38.414 216.825 35.818C214.361 33.178 213.129 30.076 213.129 26.512C213.129 24.444 213.525 22.552 214.317 20.836C215.109 19.12 216.209 17.646 217.617 16.414C219.069 15.182 220.785 14.236 222.765 13.576C224.789 12.872 227.011 12.52 229.431 12.52C231.675 12.52 233.787 12.872 235.767 13.576C237.747 14.28 239.705 15.336 241.641 16.744L242.829 13.444H244.413L245.139 27.7H242.565C241.509 24.092 239.859 21.342 237.615 19.45C235.371 17.514 232.775 16.546 229.827 16.546C227.099 16.546 224.877 17.228 223.161 18.592C221.489 19.912 220.653 21.628 220.653 23.74C220.653 24.664 220.807 25.5 221.115 26.248C221.423 26.952 221.995 27.634 222.831 28.294C223.667 28.954 224.811 29.636 226.263 30.34C227.715 31 229.585 31.748 231.873 32.584C234.953 33.772 237.571 34.982 239.727 36.214C241.927 37.402 243.709 38.7 245.073 40.108C246.481 41.472 247.515 42.924 248.175 44.464C248.835 46.004 249.165 47.698 249.165 49.546C249.165 51.79 248.681 53.836 247.713 55.684C246.745 57.532 245.381 59.116 243.621 60.436C241.905 61.756 239.837 62.79 237.417 63.538C235.041 64.286 232.401 64.66 229.497 64.66C226.857 64.66 224.481 64.308 222.369 63.604C220.257 62.856 218.079 61.668 215.835 60.04L214.515 64H212.931L211.941 47.17Z" fill="#C24E34"/>
</svg>
