<svg width="302" height="72" viewBox="0 0 302 72" fill="none" xmlns="http://www.w3.org/2000/svg">
<path d="M17.8213 40.2129V52.3301C17.8213 54.6934 17.9609 56.1865 18.2402 56.8096C18.541 57.4111 19.0566 57.8945 19.7871 58.2598C20.5391 58.625 21.9033 58.8076 23.8799 58.8076V60H1.67578V58.8076C3.69531 58.8076 5.05957 58.625 5.76855 58.2598C6.49902 57.873 7.00391 57.3789 7.2832 56.7773C7.58398 56.1758 7.73438 54.6934 7.73438 52.3301V23.9707C7.73438 21.6074 7.58398 20.125 7.2832 19.5234C7.00391 18.9004 6.49902 18.4062 5.76855 18.041C5.03809 17.6758 3.67383 17.4932 1.67578 17.4932V16.3008H20.7217C26.9951 16.3008 31.4961 17.418 34.2246 19.6523C36.9531 21.8867 38.3174 24.6797 38.3174 28.0312C38.3174 30.8672 37.4365 33.2949 35.6748 35.3145C33.9131 37.334 31.4854 38.709 28.3916 39.4395C26.3076 39.9551 22.7842 40.2129 17.8213 40.2129ZM17.8213 18.8145V37.6992C18.5303 37.7422 19.0674 37.7637 19.4326 37.7637C22.0537 37.7637 24.0732 36.9902 25.4912 35.4434C26.9092 33.875 27.6182 31.458 27.6182 28.1924C27.6182 24.9482 26.9092 22.5742 25.4912 21.0703C24.0732 19.5664 21.957 18.8145 19.1426 18.8145H17.8213ZM62.9062 47.5605H47.4697L45.6328 51.8145C45.0312 53.2324 44.7305 54.4033 44.7305 55.3271C44.7305 56.5518 45.2246 57.4541 46.2129 58.0342C46.793 58.3779 48.2217 58.6357 50.499 58.8076V60H35.9648V58.8076C37.5332 58.5713 38.8223 57.9268 39.832 56.874C40.8418 55.7998 42.0879 53.5977 43.5703 50.2676L59.2002 15.3984H59.8125L75.5713 51.2344C77.0752 54.6289 78.3105 56.7666 79.2773 57.6475C80.0078 58.3135 81.0391 58.7002 82.3711 58.8076V60H61.2305V58.8076H62.1006C63.7979 58.8076 64.9902 58.5713 65.6777 58.0986C66.1504 57.7549 66.3867 57.2607 66.3867 56.6162C66.3867 56.2295 66.3223 55.832 66.1934 55.4238C66.1504 55.2305 65.8281 54.4248 65.2266 53.0068L62.9062 47.5605ZM61.8105 45.1758L55.3008 30.126L48.5977 45.1758H61.8105ZM119.883 16.3008V28.1279H118.723C118.035 25.3994 117.272 23.4443 116.435 22.2627C115.597 21.0596 114.447 20.1035 112.986 19.3945C112.17 19.0078 110.741 18.8145 108.7 18.8145H105.445V52.5234C105.445 54.7578 105.563 56.1543 105.8 56.7129C106.058 57.2715 106.541 57.7656 107.25 58.1953C107.98 58.6035 108.969 58.8076 110.215 58.8076H111.665V60H88.7842V58.8076H90.2344C91.502 58.8076 92.5225 58.582 93.2959 58.1309C93.8545 57.8301 94.2949 57.3145 94.6172 56.584C94.8535 56.0684 94.9717 54.7148 94.9717 52.5234V18.8145H91.8135C88.8701 18.8145 86.7324 19.4375 85.4004 20.6836C83.5312 22.4238 82.3496 24.9053 81.8555 28.1279H80.6309V16.3008H119.883ZM140.314 38.9883V52.5234C140.314 54.7578 140.433 56.1543 140.669 56.7129C140.927 57.2715 141.41 57.7656 142.119 58.1953C142.85 58.6035 143.827 58.8076 145.052 58.8076H146.502V60H123.653V58.8076H125.104C126.371 58.8076 127.392 58.582 128.165 58.1309C128.724 57.8301 129.153 57.3145 129.454 56.584C129.69 56.0684 129.809 54.7148 129.809 52.5234V23.7773C129.809 21.543 129.69 20.1465 129.454 19.5879C129.218 19.0293 128.734 18.5459 128.004 18.1377C127.295 17.708 126.328 17.4932 125.104 17.4932H123.653V16.3008H146.502V17.4932H145.052C143.784 17.4932 142.764 17.7188 141.99 18.1699C141.432 18.4707 140.991 18.9863 140.669 19.7168C140.433 20.2324 140.314 21.5859 140.314 23.7773V36.1523H155.751V23.7773C155.751 21.543 155.633 20.1465 155.396 19.5879C155.16 19.0293 154.677 18.5459 153.946 18.1377C153.216 17.708 152.238 17.4932 151.014 17.4932H149.596V16.3008H172.412V17.4932H170.994C169.705 17.4932 168.685 17.7188 167.933 18.1699C167.374 18.4707 166.934 18.9863 166.611 19.7168C166.375 20.2324 166.257 21.5859 166.257 23.7773V52.5234C166.257 54.7578 166.375 56.1543 166.611 56.7129C166.848 57.2715 167.331 57.7656 168.062 58.1953C168.792 58.6035 169.77 58.8076 170.994 58.8076H172.412V60H149.596V58.8076H151.014C152.303 58.8076 153.323 58.582 154.075 58.1309C154.634 57.8301 155.074 57.3145 155.396 56.584C155.633 56.0684 155.751 54.7148 155.751 52.5234V38.9883H140.314ZM204.639 15.3018L204.993 29.8682H203.672C203.049 26.2158 201.513 23.2832 199.063 21.0703C196.636 18.8359 194.004 17.7188 191.168 17.7188C188.977 17.7188 187.236 18.3096 185.947 19.4912C184.68 20.6514 184.046 21.9941 184.046 23.5195C184.046 24.4863 184.271 25.3457 184.723 26.0977C185.346 27.1074 186.345 28.1064 187.72 29.0947C188.729 29.8037 191.061 31.0605 194.713 32.8652C199.826 35.3789 203.274 37.7529 205.058 39.9873C206.819 42.2217 207.7 44.7783 207.7 47.6572C207.7 51.3096 206.271 54.457 203.414 57.0996C200.578 59.7207 196.969 61.0312 192.586 61.0312C191.211 61.0312 189.911 60.8916 188.687 60.6123C187.462 60.333 185.926 59.8066 184.078 59.0332C183.047 58.6035 182.198 58.3887 181.532 58.3887C180.974 58.3887 180.383 58.6035 179.76 59.0332C179.137 59.4629 178.632 60.1182 178.245 60.999H177.053V44.499H178.245C179.19 49.1396 181.006 52.6846 183.691 55.1338C186.398 57.5615 189.31 58.7754 192.425 58.7754C194.831 58.7754 196.743 58.1201 198.161 56.8096C199.601 55.499 200.32 53.9736 200.32 52.2334C200.32 51.2021 200.041 50.2031 199.482 49.2363C198.945 48.2695 198.118 47.3564 197.001 46.4971C195.884 45.6162 193.907 44.4775 191.071 43.0811C187.097 41.126 184.239 39.4609 182.499 38.0859C180.759 36.7109 179.416 35.1748 178.471 33.4775C177.547 31.7803 177.085 29.9111 177.085 27.8701C177.085 24.3896 178.363 21.4248 180.92 18.9756C183.477 16.5264 186.699 15.3018 190.588 15.3018C192.006 15.3018 193.381 15.4736 194.713 15.8174C195.723 16.0752 196.947 16.5586 198.387 17.2676C199.848 17.9551 200.868 18.2988 201.448 18.2988C202.007 18.2988 202.447 18.127 202.77 17.7832C203.092 17.4395 203.393 16.6123 203.672 15.3018H204.639Z" fill="#FF6846"/>
</svg>
