<svg width="594" height="99" viewBox="0 0 594 99" fill="none" xmlns="http://www.w3.org/2000/svg">
<path d="M49 29.08C49 34.12 47.04 37.97 43.12 40.63C39.2 43.2433 33.5067 44.55 26.04 44.55H20.09V56.87C20.09 58.6433 20.2067 60.09 20.44 61.21C20.6733 62.2833 21.1633 63.1233 21.91 63.73C22.6567 64.3367 23.6833 64.7333 24.99 64.92C26.2967 65.1067 28.0467 65.2 30.24 65.2V68H2.45V65.2C3.99 65.1533 5.25 65.0133 6.23 64.78C7.21 64.5467 7.95667 64.15 8.47 63.59C8.98333 63.03 9.33333 62.2367 9.52 61.21C9.70667 60.1833 9.8 58.8533 9.8 57.22V24.88C9.8 23.2467 9.70667 21.94 9.52 20.96C9.38 19.9333 9.07667 19.14 8.61 18.58C8.14333 17.9733 7.46667 17.5767 6.58 17.39C5.74 17.1567 4.62 16.9933 3.22 16.9V14.1H27.44C34.5333 14.1 39.9 15.36 43.54 17.88C47.18 20.4 49 24.1333 49 29.08ZM20.09 40.35H24.64C29.1667 40.35 32.48 39.44 34.58 37.62C36.68 35.8 37.73 32.93 37.73 29.01C37.73 25.51 36.8433 22.8033 35.07 20.89C33.2967 18.9767 30.52 18.02 26.74 18.02H21.35C20.51 18.02 20.09 18.4167 20.09 19.21V40.35ZM80.6657 51.69H60.8557C58.6624 56.6367 57.5657 60.0667 57.5657 61.98C57.5657 63.38 58.079 64.2667 59.1057 64.64C60.179 65.0133 61.7657 65.2 63.8657 65.2V68H44.6857V65.2C45.8057 65.06 46.7624 64.8733 47.5557 64.64C48.3957 64.4067 49.119 64.08 49.7257 63.66C50.379 63.24 50.939 62.7033 51.4057 62.05C51.8724 61.35 52.3157 60.51 52.7357 59.53L71.1457 13.4H76.3257L93.0557 54.28C94.0357 56.66 94.8524 58.5267 95.5057 59.88C96.2057 61.2333 96.929 62.2833 97.6757 63.03C98.469 63.73 99.3557 64.22 100.336 64.5C101.362 64.78 102.669 64.99 104.256 65.13V68H77.7957V65.13C80.0357 65.0367 81.6457 64.8033 82.6257 64.43C83.6057 64.0567 84.0957 63.31 84.0957 62.19C84.0957 61.5367 83.9324 60.6967 83.6057 59.67C83.279 58.6433 82.8357 57.3833 82.2757 55.89L80.6657 51.69ZM62.4657 47.49H79.1257L71.0757 26.28H70.7957L62.4657 47.49ZM153.984 29.5H150.974C150.834 27.2133 150.484 25.3233 149.924 23.83C149.41 22.29 148.664 21.0767 147.684 20.19C146.704 19.2567 145.514 18.6267 144.114 18.3C142.714 17.9267 141.08 17.74 139.214 17.74C137.394 17.74 135.924 17.7867 134.804 17.88C133.73 17.9267 132.89 18.0433 132.284 18.23C131.724 18.37 131.35 18.58 131.164 18.86C130.977 19.14 130.884 19.49 130.884 19.91V56.59C130.884 58.0833 130.977 59.3667 131.164 60.44C131.397 61.5133 131.84 62.4 132.494 63.1C133.147 63.7533 134.104 64.2667 135.364 64.64C136.624 64.9667 138.28 65.1533 140.334 65.2V68H111.004V65.2C113.104 65.1533 114.784 64.9667 116.044 64.64C117.304 64.2667 118.26 63.7533 118.914 63.1C119.614 62.4 120.057 61.5133 120.244 60.44C120.477 59.3667 120.594 58.0833 120.594 56.59V19.91C120.594 19.49 120.5 19.14 120.314 18.86C120.174 18.58 119.847 18.37 119.334 18.23C118.82 18.0433 118.074 17.9267 117.094 17.88C116.16 17.7867 114.924 17.74 113.384 17.74C111.704 17.74 110.094 17.8333 108.554 18.02C107.014 18.16 105.66 18.6267 104.494 19.42C103.327 20.1667 102.37 21.3333 101.624 22.92C100.924 24.46 100.55 26.6533 100.504 29.5H97.7736L98.4736 14.1H153.284L153.984 29.5ZM211.184 56.73C211.184 58.5033 211.254 59.95 211.394 61.07C211.581 62.1433 211.931 62.9833 212.444 63.59C213.004 64.15 213.751 64.5467 214.684 64.78C215.664 65.0133 216.947 65.1533 218.534 65.2V68H192.844V65.2C194.571 65.1533 195.947 65.0133 196.974 64.78C198.047 64.5467 198.864 64.15 199.424 63.59C200.031 63.03 200.427 62.2367 200.614 61.21C200.801 60.1833 200.894 58.8533 200.894 57.22V42.59H174.924V56.73C174.924 58.5033 175.017 59.95 175.204 61.07C175.391 62.1433 175.764 62.9833 176.324 63.59C176.884 64.15 177.677 64.5467 178.704 64.78C179.777 65.0133 181.177 65.1533 182.904 65.2V68H157.284V65.2C158.871 65.1533 160.131 65.0133 161.064 64.78C162.044 64.5467 162.791 64.15 163.304 63.59C163.817 63.03 164.167 62.2367 164.354 61.21C164.541 60.1833 164.634 58.8533 164.634 57.22V24.88C164.634 23.2467 164.541 21.94 164.354 20.96C164.214 19.9333 163.911 19.14 163.444 18.58C162.977 17.9733 162.301 17.5767 161.414 17.39C160.574 17.1567 159.454 16.9933 158.054 16.9V14.1H182.204V16.9C180.617 16.9467 179.334 17.0867 178.354 17.32C177.421 17.5533 176.697 17.9733 176.184 18.58C175.671 19.1867 175.321 20.0267 175.134 21.1C174.994 22.1733 174.924 23.5967 174.924 25.37V38.25H200.894V24.88C200.894 23.2467 200.801 21.94 200.614 20.96C200.427 19.9333 200.077 19.14 199.564 18.58C199.051 17.9733 198.304 17.5767 197.324 17.39C196.391 17.1567 195.131 16.9933 193.544 16.9V14.1H217.764V16.9C216.364 16.9467 215.221 17.0867 214.334 17.32C213.494 17.5533 212.841 17.9733 212.374 18.58C211.907 19.1867 211.581 20.0267 211.394 21.1C211.254 22.1733 211.184 23.5967 211.184 25.37V56.73ZM224.786 50.15H227.516C228.169 54.5833 229.943 58.0833 232.836 60.65C235.729 63.17 239.299 64.43 243.546 64.43C245.273 64.43 246.859 64.22 248.306 63.8C249.753 63.38 250.989 62.7967 252.016 62.05C253.043 61.2567 253.836 60.3467 254.396 59.32C254.956 58.2467 255.236 57.0567 255.236 55.75C255.236 54.63 255.049 53.6733 254.676 52.88C254.349 52.04 253.696 51.2467 252.716 50.5C251.736 49.7067 250.383 48.9133 248.656 48.12C246.976 47.3267 244.783 46.4167 242.076 45.39C236.616 43.29 232.579 40.8633 229.966 38.11C227.353 35.31 226.046 32.02 226.046 28.24C226.046 26.0467 226.466 24.04 227.306 22.22C228.146 20.4 229.313 18.8367 230.806 17.53C232.346 16.2233 234.166 15.22 236.266 14.52C238.413 13.7733 240.769 13.4 243.336 13.4C245.716 13.4 247.956 13.7733 250.056 14.52C252.156 15.2667 254.233 16.3867 256.286 17.88L257.546 14.38H259.226L259.996 29.5H257.266C256.146 25.6733 254.396 22.7567 252.016 20.75C249.636 18.6967 246.883 17.67 243.756 17.67C240.863 17.67 238.506 18.3933 236.686 19.84C234.913 21.24 234.026 23.06 234.026 25.3C234.026 26.28 234.189 27.1667 234.516 27.96C234.843 28.7067 235.449 29.43 236.336 30.13C237.223 30.83 238.436 31.5533 239.976 32.3C241.516 33 243.499 33.7933 245.926 34.68C249.193 35.94 251.969 37.2233 254.256 38.53C256.589 39.79 258.479 41.1667 259.926 42.66C261.419 44.1067 262.516 45.6467 263.216 47.28C263.916 48.9133 264.266 50.71 264.266 52.67C264.266 55.05 263.753 57.22 262.726 59.18C261.699 61.14 260.253 62.82 258.386 64.22C256.566 65.62 254.373 66.7167 251.806 67.51C249.286 68.3033 246.486 68.7 243.406 68.7C240.606 68.7 238.086 68.3267 235.846 67.58C233.606 66.7867 231.296 65.5267 228.916 63.8L227.516 68H225.836L224.786 50.15Z" fill="#FF6846"/>
<path d="M378.692 28H379.844V17.506L387.764 28H388.916V15.634H387.764V26.128L379.844 15.634H378.692V28ZM396.617 14.572H397.607L400.019 12.268L398.813 11.998L396.617 14.572ZM398.004 28.216C400.956 28.216 403.044 26.056 403.044 22.996V15.634H401.891V22.996C401.891 25.426 400.271 27.154 398.004 27.154C395.735 27.154 394.115 25.426 394.115 22.996V15.634H392.963V22.996C392.963 26.056 395.051 28.216 398.004 28.216ZM412.681 28.216C414.391 28.216 415.975 27.478 417.127 26.326L416.335 25.516C415.399 26.506 414.085 27.136 412.681 27.136C409.873 27.136 407.515 24.706 407.515 21.808C407.515 18.928 409.873 16.498 412.681 16.498C414.085 16.498 415.399 17.128 416.335 18.1L417.127 17.308C415.975 16.138 414.391 15.418 412.681 15.418C409.261 15.418 406.345 18.334 406.345 21.808C406.345 25.282 409.261 28.216 412.681 28.216ZM420.829 26.902V15.634H419.677V28H427.705V26.902H420.829ZM439.169 16.732V15.634H430.547V28H439.169V26.902H431.717V22.258H438.485V21.142H431.717V16.732H439.169ZM448.246 28.216C451.684 28.216 454.564 25.282 454.564 21.808C454.564 18.334 451.684 15.418 448.246 15.418C444.826 15.418 441.91 18.334 441.91 21.808C441.91 25.282 444.826 28.216 448.246 28.216ZM448.246 27.136C445.438 27.136 443.08 24.706 443.08 21.808C443.08 18.928 445.438 16.498 448.246 16.498C451.054 16.498 453.394 18.928 453.394 21.808C453.394 24.706 451.054 27.136 448.246 27.136ZM464.026 28H468.22C472.072 28 474.79 25.426 474.79 21.808C474.79 18.19 472.072 15.634 468.22 15.634H464.026V28ZM465.178 26.938V16.696H468.22C471.388 16.696 473.638 18.82 473.638 21.808C473.638 24.814 471.388 26.938 468.22 26.938H465.178ZM486.794 16.732V15.634H478.172V28H486.794V26.902H479.342V22.258H486.11V21.142H479.342V16.732H486.794ZM496.051 28H497.203V23.428H501.127C503.665 23.428 505.591 21.826 505.591 19.54C505.591 17.254 503.665 15.634 501.127 15.634H496.051V28ZM497.203 22.33V16.732H500.929C502.999 16.732 504.439 17.812 504.439 19.54C504.439 21.25 502.999 22.33 500.929 22.33H497.203ZM517.032 16.732V15.634H508.41V28H517.032V26.902H509.58V22.258H516.348V21.142H509.58V16.732H517.032ZM524.543 28.198C527.279 28.198 528.845 26.668 528.845 24.688C528.845 22.672 527.315 21.772 524.777 21.178C522.491 20.62 521.321 20.08 521.321 18.838C521.321 17.524 522.509 16.462 524.183 16.462C525.515 16.462 526.811 17.056 527.837 18.064L528.557 17.164C527.387 16.102 525.965 15.4 524.237 15.4C521.879 15.4 520.151 16.912 520.151 18.928C520.151 20.872 521.591 21.682 524.201 22.294C526.541 22.834 527.675 23.446 527.675 24.796C527.675 26.056 526.541 27.136 524.579 27.136C522.869 27.136 521.465 26.416 520.385 25.336L519.665 26.236C520.907 27.46 522.581 28.198 524.543 28.198ZM544.224 21.808C544.224 18.334 541.344 15.418 537.906 15.418C534.486 15.418 531.57 18.334 531.57 21.808C531.57 25.282 534.486 28.216 537.906 28.216C539.4 28.216 540.786 27.658 541.884 26.758L543.324 28L544.062 27.136L542.694 25.948C543.648 24.814 544.224 23.374 544.224 21.808ZM537.906 27.136C535.098 27.136 532.74 24.706 532.74 21.808C532.74 18.928 535.098 16.498 537.906 16.498C540.714 16.498 543.054 18.928 543.054 21.808C543.054 23.086 542.586 24.292 541.83 25.21L539.67 23.338L538.932 24.202L541.038 26.02C540.156 26.722 539.076 27.136 537.906 27.136ZM552.551 28.216C555.503 28.216 557.591 26.056 557.591 22.996V15.634H556.439V22.996C556.439 25.426 554.819 27.154 552.551 27.154C550.283 27.154 548.663 25.426 548.663 22.996V15.634H547.511V22.996C547.511 26.056 549.599 28.216 552.551 28.216ZM561.379 28H562.531V15.634H561.379V28ZM570.463 28.198C573.199 28.198 574.765 26.668 574.765 24.688C574.765 22.672 573.235 21.772 570.697 21.178C568.411 20.62 567.241 20.08 567.241 18.838C567.241 17.524 568.429 16.462 570.103 16.462C571.435 16.462 572.731 17.056 573.757 18.064L574.477 17.164C573.307 16.102 571.885 15.4 570.157 15.4C567.799 15.4 566.071 16.912 566.071 18.928C566.071 20.872 567.511 21.682 570.121 22.294C572.461 22.834 573.595 23.446 573.595 24.796C573.595 26.056 572.461 27.136 570.499 27.136C568.789 27.136 567.385 26.416 566.305 25.336L565.585 26.236C566.827 27.46 568.501 28.198 570.463 28.198ZM588.037 28H589.297L583.843 15.634H582.583L577.129 28H578.389L579.667 25.084H586.759L588.037 28ZM580.171 23.968L583.213 17.056L586.255 23.968H580.171ZM387.044 38.732V37.634H378.422V50H387.044V48.902H379.592V44.258H386.36V43.142H379.592V38.732H387.044ZM390.541 50H391.693V40.082L396.409 48.938L401.125 40.082V50H402.277V37.634H401.125L396.409 46.49L391.693 37.634H390.541V50ZM420.851 38.732V37.634H412.229V50H420.851V48.902H413.399V44.258H420.167V43.142H413.399V38.732H420.851ZM428.362 50.198C431.098 50.198 432.664 48.668 432.664 46.688C432.664 44.672 431.134 43.772 428.596 43.178C426.31 42.62 425.14 42.08 425.14 40.838C425.14 39.524 426.328 38.462 428.002 38.462C429.334 38.462 430.63 39.056 431.656 40.064L432.376 39.164C431.206 38.102 429.784 37.4 428.056 37.4C425.698 37.4 423.97 38.912 423.97 40.928C423.97 42.872 425.41 43.682 428.02 44.294C430.36 44.834 431.494 45.446 431.494 46.796C431.494 48.056 430.36 49.136 428.398 49.136C426.688 49.136 425.284 48.416 424.204 47.336L423.484 48.236C424.726 49.46 426.4 50.198 428.362 50.198ZM439.546 50H440.698V38.732H444.982V37.634H435.262V38.732H439.546V50ZM457.562 41.54C457.562 39.254 455.636 37.634 453.098 37.634H448.022V50H449.174V45.428H452.756L455.978 50H457.31L454.034 45.356C456.104 45.014 457.562 43.538 457.562 41.54ZM449.174 38.732H452.9C454.97 38.732 456.41 39.812 456.41 41.54C456.41 43.25 454.97 44.33 452.9 44.33H449.174V38.732ZM470.531 50H471.791L466.337 37.634H465.077L459.623 50H460.883L462.161 47.084H469.253L470.531 50ZM462.665 45.968L465.707 39.056L468.749 45.968H462.665ZM477.168 50H478.32V38.732H482.604V37.634H472.884V38.732H477.168V50ZM485.644 50H486.796V37.634H485.644V50ZM499.192 38.732V37.634H490.444V50H491.614V44.258H498.454V43.142H491.614V38.732H499.192ZM502.082 50H503.234V37.634H502.082V50ZM512.732 50.216C514.442 50.216 516.026 49.478 517.178 48.326L516.386 47.516C515.45 48.506 514.136 49.136 512.732 49.136C509.924 49.136 507.566 46.706 507.566 43.808C507.566 40.928 509.924 38.498 512.732 38.498C514.136 38.498 515.45 39.128 516.386 40.1L517.178 39.308C516.026 38.138 514.442 37.418 512.732 37.418C509.312 37.418 506.396 40.334 506.396 43.808C506.396 47.282 509.312 50.216 512.732 50.216ZM529.989 50H531.249L525.795 37.634H524.535L519.081 50H520.341L521.619 47.084H528.711L529.989 50ZM522.123 45.968L525.165 39.056L528.207 45.968H522.123ZM544.357 48.326L543.565 47.516C542.629 48.506 541.315 49.136 539.911 49.136C537.103 49.136 534.745 46.706 534.745 43.808C534.745 40.928 537.103 38.498 539.911 38.498C541.315 38.498 542.629 39.128 543.565 40.1L544.357 39.308C543.205 38.138 541.621 37.418 539.911 37.418C536.491 37.418 533.575 40.334 533.575 43.808C533.575 47.102 536.203 49.91 539.389 50.198L538.957 51.206L539.245 51.512C539.407 51.386 539.641 51.314 539.857 51.314C540.325 51.314 540.577 51.584 540.577 51.944C540.577 52.34 540.163 52.682 539.641 52.682C539.245 52.682 538.813 52.538 538.471 52.25L538.147 52.952C538.525 53.258 539.101 53.456 539.695 53.456C540.649 53.456 541.423 52.844 541.423 51.98C541.423 51.296 540.901 50.81 540.199 50.81C540.127 50.81 540.055 50.81 539.983 50.828L540.235 50.198C541.819 50.126 543.277 49.406 544.357 48.326ZM551.173 35.33C551.911 35.33 552.433 36.518 553.495 36.518C554.449 36.518 555.025 35.762 555.187 34.448L554.431 34.322C554.269 35.204 553.963 35.618 553.495 35.618C552.757 35.618 552.235 34.43 551.173 34.43C550.219 34.43 549.643 35.186 549.481 36.5L550.237 36.626C550.381 35.744 550.705 35.33 551.173 35.33ZM557.167 50H558.427L552.973 37.634H551.713L546.259 50H547.519L548.797 47.084H555.889L557.167 50ZM549.301 45.968L552.343 39.056L555.385 45.968H549.301ZM567.089 50.216C570.527 50.216 573.407 47.282 573.407 43.808C573.407 40.334 570.527 37.418 567.089 37.418C563.669 37.418 560.753 40.334 560.753 43.808C560.753 47.282 563.669 50.216 567.089 50.216ZM567.089 49.136C564.281 49.136 561.923 46.706 561.923 43.808C561.923 40.928 564.281 38.498 567.089 38.498C569.897 38.498 572.237 40.928 572.237 43.808C572.237 46.706 569.897 49.136 567.089 49.136ZM591.222 38.732V37.634H582.6V50H591.222V48.902H583.77V44.258H590.538V43.142H583.77V38.732H591.222ZM382.094 72H383.246V60.732H387.53V59.634H377.81V60.732H382.094V72ZM400.11 63.54C400.11 61.254 398.184 59.634 395.646 59.634H390.57V72H391.722V67.428H395.304L398.526 72H399.858L396.582 67.356C398.652 67.014 400.11 65.538 400.11 63.54ZM391.722 60.732H395.448C397.518 60.732 398.958 61.812 398.958 63.54C398.958 65.25 397.518 66.33 395.448 66.33H391.722V60.732ZM413.079 72H414.339L408.885 59.634H407.625L402.171 72H403.431L404.709 69.084H411.801L413.079 72ZM405.213 67.968L408.255 61.056L411.297 67.968H405.213ZM419.941 72.216C422.191 72.216 423.775 70.47 423.775 68.022V59.634H422.623V68.022C422.623 69.858 421.507 71.154 419.941 71.154C418.753 71.154 417.565 70.398 417.007 69.318L416.197 70.164C416.953 71.37 418.465 72.216 419.941 72.216ZM436.181 60.732V59.634H427.559V72H436.181V70.902H428.729V66.258H435.497V65.142H428.729V60.732H436.181ZM443.08 72H444.232V60.732H448.516V59.634H438.796V60.732H443.08V72ZM456.128 58.572H457.118L459.53 56.268L458.324 55.998L456.128 58.572ZM456.632 72.216C460.07 72.216 462.95 69.282 462.95 65.808C462.95 62.334 460.07 59.418 456.632 59.418C453.212 59.418 450.296 62.334 450.296 65.808C450.296 69.282 453.212 72.216 456.632 72.216ZM456.632 71.136C453.824 71.136 451.466 68.706 451.466 65.808C451.466 62.928 453.824 60.498 456.632 60.498C459.44 60.498 461.78 62.928 461.78 65.808C461.78 68.706 459.44 71.136 456.632 71.136ZM475.652 63.54C475.652 61.254 473.726 59.634 471.188 59.634H466.112V72H467.264V67.428H470.846L474.068 72H475.4L472.124 67.356C474.194 67.014 475.652 65.538 475.652 63.54ZM467.264 60.732H470.99C473.06 60.732 474.5 61.812 474.5 63.54C474.5 65.25 473.06 66.33 470.99 66.33H467.264V60.732ZM478.558 72H479.71V59.634H478.558V72ZM493.421 72H494.681L489.227 59.634H487.967L482.513 72H483.773L485.051 69.084H492.143L493.421 72ZM485.555 67.968L488.597 61.056L491.639 67.968H485.555ZM501.777 72.198C504.513 72.198 506.079 70.668 506.079 68.688C506.079 66.672 504.549 65.772 502.011 65.178C499.725 64.62 498.555 64.08 498.555 62.838C498.555 61.524 499.743 60.462 501.417 60.462C502.749 60.462 504.045 61.056 505.071 62.064L505.791 61.164C504.621 60.102 503.199 59.4 501.471 59.4C499.113 59.4 497.385 60.912 497.385 62.928C497.385 64.872 498.825 65.682 501.435 66.294C503.775 66.834 504.909 67.446 504.909 68.796C504.909 70.056 503.775 71.136 501.813 71.136C500.103 71.136 498.699 70.416 497.619 69.336L496.899 70.236C498.141 71.46 499.815 72.198 501.777 72.198ZM519.604 72.198C522.34 72.198 523.906 70.668 523.906 68.688C523.906 66.672 522.376 65.772 519.838 65.178C517.552 64.62 516.382 64.08 516.382 62.838C516.382 61.524 517.57 60.462 519.244 60.462C520.576 60.462 521.872 61.056 522.898 62.064L523.618 61.164C522.448 60.102 521.026 59.4 519.298 59.4C516.94 59.4 515.212 60.912 515.212 62.928C515.212 64.872 516.652 65.682 519.262 66.294C521.602 66.834 522.736 67.446 522.736 68.796C522.736 70.056 521.602 71.136 519.64 71.136C517.93 71.136 516.526 70.416 515.446 69.336L514.726 70.236C515.968 71.46 517.642 72.198 519.604 72.198ZM532.966 72.216C536.404 72.216 539.284 69.282 539.284 65.808C539.284 62.334 536.404 59.418 532.966 59.418C529.546 59.418 526.63 62.334 526.63 65.808C526.63 69.282 529.546 72.216 532.966 72.216ZM532.966 71.136C530.158 71.136 527.8 68.706 527.8 65.808C527.8 62.928 530.158 60.498 532.966 60.498C535.774 60.498 538.114 62.928 538.114 65.808C538.114 68.706 535.774 71.136 532.966 71.136ZM548.296 72.216C550.006 72.216 551.59 71.478 552.742 70.326L551.95 69.516C551.014 70.506 549.7 71.136 548.296 71.136C545.488 71.136 543.13 68.706 543.13 65.808C543.13 62.928 545.488 60.498 548.296 60.498C549.7 60.498 551.014 61.128 551.95 62.1L552.742 61.308C551.59 60.138 550.006 59.418 548.296 59.418C544.876 59.418 541.96 62.334 541.96 65.808C541.96 69.282 544.876 72.216 548.296 72.216ZM555.49 72H556.642V59.634H555.49V72ZM570.352 72H571.612L566.158 59.634H564.898L559.444 72H560.704L561.982 69.084H569.074L570.352 72ZM562.486 67.968L565.528 61.056L568.57 67.968H562.486ZM574.424 72H575.576V59.634H574.424V72ZM583.509 72.198C586.245 72.198 587.811 70.668 587.811 68.688C587.811 66.672 586.281 65.772 583.743 65.178C581.457 64.62 580.287 64.08 580.287 62.838C580.287 61.524 581.475 60.462 583.149 60.462C584.481 60.462 585.777 61.056 586.803 62.064L587.523 61.164C586.353 60.102 584.931 59.4 583.203 59.4C580.845 59.4 579.117 60.912 579.117 62.928C579.117 64.872 580.557 65.682 583.167 66.294C585.507 66.834 586.641 67.446 586.641 68.796C586.641 70.056 585.507 71.136 583.545 71.136C581.835 71.136 580.431 70.416 579.351 69.336L578.631 70.236C579.873 71.46 581.547 72.198 583.509 72.198Z" fill="black"/>
<rect x="123" y="79" width="5" height="15" fill="#312E2E"/>
<rect x="123.038" y="98.6924" width="5" height="470.398" transform="rotate(-90.4647 123.038 98.6924)" fill="#312E2E"/>
</svg>
