<svg width="302" height="72" viewBox="0 0 302 72" fill="none" xmlns="http://www.w3.org/2000/svg">
<path d="M43.428 25.918C43.428 28.25 43.054 30.34 42.306 32.188C41.558 34.036 40.37 35.598 38.742 36.874C37.158 38.15 35.068 39.14 32.472 39.844C29.92 40.548 26.796 40.9 23.1 40.9H17.16V53.638C17.16 55.266 17.248 56.608 17.424 57.664C17.644 58.676 18.062 59.468 18.678 60.04C19.338 60.612 20.262 61.008 21.45 61.228C22.682 61.404 24.288 61.492 26.268 61.492V64H2.97V61.492C4.51 61.448 5.742 61.316 6.666 61.096C7.634 60.876 8.382 60.502 8.91 59.974C9.438 59.446 9.79 58.698 9.966 57.73C10.142 56.762 10.23 55.508 10.23 53.968V23.212C10.23 21.672 10.142 20.44 9.966 19.516C9.834 18.548 9.526 17.8 9.042 17.272C8.602 16.7 7.942 16.326 7.062 16.15C6.182 15.93 5.038 15.776 3.63 15.688V13.18H24.354C30.426 13.18 35.112 14.302 38.412 16.546C41.756 18.79 43.428 21.914 43.428 25.918ZM17.16 37.6H21.846C26.246 37.6 29.502 36.764 31.614 35.092C33.77 33.376 34.848 30.582 34.848 26.71C34.848 22.97 33.99 20.308 32.274 18.724C30.602 17.096 27.962 16.282 24.354 16.282H18.282C17.534 16.282 17.16 16.656 17.16 17.404V37.6ZM73.7158 45.586H56.0938C55.3458 47.39 54.7078 48.996 54.1798 50.404C53.6518 51.768 53.2118 52.956 52.8598 53.968C52.5518 54.98 52.3318 55.838 52.1998 56.542C52.0678 57.246 52.0018 57.818 52.0018 58.258C52.0018 59.49 52.3978 60.348 53.1898 60.832C53.9818 61.272 55.3018 61.492 57.1498 61.492V64H41.1118V61.492C42.1238 61.36 42.9818 61.184 43.6858 60.964C44.4338 60.744 45.0718 60.436 45.5998 60.04C46.1718 59.644 46.6558 59.138 47.0518 58.522C47.4918 57.862 47.9098 57.07 48.3058 56.146L65.4658 13.18H68.3038L83.2858 50.404C84.2978 52.868 85.1778 54.848 85.9258 56.344C86.6738 57.796 87.3998 58.896 88.1038 59.644C88.8078 60.392 89.5558 60.876 90.3478 61.096C91.1838 61.316 92.1738 61.426 93.3178 61.426V64H71.8018V61.426C74.1338 61.426 75.7398 61.206 76.6198 60.766C77.4998 60.326 77.9398 59.6 77.9398 58.588C77.9398 58.148 77.9178 57.752 77.8738 57.4C77.8298 57.004 77.7418 56.586 77.6098 56.146C77.5218 55.706 77.3678 55.222 77.1478 54.694C76.9718 54.122 76.7298 53.462 76.4218 52.714L73.7158 45.586ZM57.4138 42.286H72.4618L65.1358 22.816L57.4138 42.286ZM139.532 25.786H136.826C136.694 23.894 136.386 22.31 135.902 21.034C135.418 19.758 134.714 18.768 133.79 18.064C132.91 17.316 131.788 16.788 130.424 16.48C129.06 16.172 127.432 16.018 125.54 16.018C123.912 16.018 122.592 16.062 121.58 16.15C120.612 16.194 119.864 16.304 119.336 16.48C118.808 16.656 118.456 16.876 118.28 17.14C118.148 17.36 118.082 17.668 118.082 18.064V53.374C118.082 54.782 118.17 55.992 118.346 57.004C118.566 58.016 118.962 58.852 119.534 59.512C120.15 60.128 121.008 60.612 122.108 60.964C123.252 61.272 124.748 61.448 126.596 61.492V64H101.648V61.492C103.496 61.448 104.992 61.272 106.136 60.964C107.28 60.612 108.138 60.128 108.71 59.512C109.326 58.852 109.722 58.016 109.898 57.004C110.118 55.992 110.228 54.782 110.228 53.374V18.064C110.228 17.668 110.14 17.36 109.964 17.14C109.832 16.876 109.524 16.656 109.04 16.48C108.6 16.304 107.962 16.194 107.126 16.15C106.29 16.062 105.168 16.018 103.76 16.018C102.044 16.018 100.438 16.084 98.9423 16.216C97.4903 16.348 96.2143 16.744 95.1143 17.404C94.0583 18.02 93.2003 18.988 92.5403 20.308C91.8803 21.628 91.5283 23.454 91.4843 25.786H89.0423V13.18H138.872L139.532 25.786ZM191.457 53.506C191.457 55.178 191.545 56.542 191.721 57.598C191.897 58.61 192.227 59.402 192.711 59.974C193.239 60.502 193.965 60.876 194.889 61.096C195.857 61.316 197.111 61.448 198.651 61.492V64H177.267V61.492C178.807 61.448 180.039 61.316 180.963 61.096C181.931 60.876 182.679 60.502 183.207 59.974C183.735 59.446 184.087 58.698 184.263 57.73C184.439 56.762 184.527 55.508 184.527 53.968V39.646H157.797V53.506C157.797 55.178 157.885 56.542 158.061 57.598C158.237 58.61 158.567 59.402 159.051 59.974C159.579 60.502 160.305 60.876 161.229 61.096C162.197 61.316 163.451 61.448 164.991 61.492V64H143.607V61.492C145.147 61.448 146.379 61.316 147.303 61.096C148.271 60.876 149.019 60.502 149.547 59.974C150.075 59.446 150.427 58.698 150.603 57.73C150.779 56.762 150.867 55.508 150.867 53.968V23.212C150.867 21.672 150.779 20.44 150.603 19.516C150.471 18.548 150.163 17.8 149.679 17.272C149.239 16.7 148.579 16.326 147.699 16.15C146.819 15.93 145.675 15.776 144.267 15.688V13.18H164.331V15.688C162.923 15.732 161.779 15.864 160.899 16.084C160.063 16.304 159.403 16.7 158.919 17.272C158.479 17.844 158.171 18.636 157.995 19.648C157.863 20.66 157.797 22.002 157.797 23.674V36.346H184.527V23.212C184.527 21.672 184.439 20.44 184.263 19.516C184.131 18.548 183.823 17.8 183.339 17.272C182.899 16.7 182.239 16.326 181.359 16.15C180.479 15.93 179.335 15.776 177.927 15.688V13.18H197.991V15.688C196.583 15.732 195.439 15.864 194.559 16.084C193.723 16.304 193.063 16.7 192.579 17.272C192.139 17.844 191.831 18.636 191.655 19.648C191.523 20.66 191.457 22.002 191.457 23.674V53.506ZM205.502 48.49H207.944C208.252 50.47 208.824 52.252 209.66 53.836C210.54 55.42 211.618 56.762 212.894 57.862C214.214 58.962 215.71 59.82 217.382 60.436C219.098 61.008 220.946 61.294 222.926 61.294C226.182 61.294 228.756 60.524 230.648 58.984C232.54 57.444 233.486 55.354 233.486 52.714C233.486 51.614 233.288 50.602 232.892 49.678C232.54 48.754 231.924 47.874 231.044 47.038C230.164 46.158 228.976 45.3 227.48 44.464C226.028 43.628 224.18 42.726 221.936 41.758C219.208 40.57 216.92 39.426 215.072 38.326C213.224 37.226 211.75 36.082 210.65 34.894C209.55 33.706 208.758 32.452 208.274 31.132C207.834 29.768 207.614 28.228 207.614 26.512C207.614 24.488 207.966 22.618 208.67 20.902C209.418 19.186 210.452 17.712 211.772 16.48C213.092 15.204 214.654 14.236 216.458 13.576C218.262 12.872 220.242 12.52 222.398 12.52C224.334 12.52 226.138 12.828 227.81 13.444C229.482 14.06 231.176 15.05 232.892 16.414L234.608 13.444H236.126L236.852 26.578H234.41C233.354 22.97 231.814 20.286 229.79 18.526C227.81 16.766 225.412 15.886 222.596 15.886C219.912 15.886 217.778 16.546 216.194 17.866C214.61 19.186 213.818 20.968 213.818 23.212C213.818 24.268 213.994 25.236 214.346 26.116C214.698 26.952 215.27 27.766 216.062 28.558C216.854 29.306 217.888 30.076 219.164 30.868C220.44 31.616 222.024 32.408 223.916 33.244C227.172 34.696 229.878 36.06 232.034 37.336C234.19 38.568 235.906 39.822 237.182 41.098C238.458 42.33 239.36 43.65 239.888 45.058C240.416 46.422 240.68 47.962 240.68 49.678C240.68 51.878 240.24 53.902 239.36 55.75C238.48 57.598 237.248 59.182 235.664 60.502C234.08 61.822 232.188 62.856 229.988 63.604C227.788 64.308 225.368 64.66 222.728 64.66C220.22 64.66 217.954 64.308 215.93 63.604C213.95 62.9 211.926 61.712 209.858 60.04L208.01 63.274H206.492L205.502 48.49Z" fill="#F54640"/>
</svg>
